<svg width="18" height="18" viewBox="0 0 18 18" fill="none" xmlns="http://www.w3.org/2000/svg">
<path fill-rule="evenodd" clip-rule="evenodd" d="M9.00002 17.3334C13.6024 17.3334 17.3334 13.6025 17.3334 9.00008C17.3334 4.39771 13.6024 0.666748 9.00002 0.666748C4.39765 0.666748 0.666687 4.39771 0.666687 9.00008C0.666687 13.6025 4.39765 17.3334 9.00002 17.3334ZM9.62502 6.50008C9.62502 6.1549 9.3452 5.87508 9.00002 5.87508C8.65484 5.87508 8.37502 6.1549 8.37502 6.50008L8.37502 8.3751H6.50002C6.15484 8.3751 5.87502 8.65492 5.87502 9.0001C5.87502 9.34528 6.15484 9.6251 6.50002 9.6251H8.37502V11.5001C8.37502 11.8453 8.65484 12.1251 9.00002 12.1251C9.3452 12.1251 9.62502 11.8453 9.62502 11.5001L9.62502 9.6251H11.5C11.8452 9.6251 12.125 9.34528 12.125 9.0001C12.125 8.65492 11.8452 8.3751 11.5 8.3751H9.62502V6.50008Z" fill="white"/>
</svg>
