<svg width="24" height="24" viewBox="0 0 24 24" fill="none" xmlns="http://www.w3.org/2000/svg">
<path d="M6.85714 21H3V8H6.85714V21ZM21 21H17.1429V14.0554C17.1429 12.2458 16.5051 11.3449 15.2413 11.3449C14.2397 11.3449 13.6046 11.8493 13.2857 12.8594V21H9.42857C9.42857 21 9.48 9.3 9.42857 8H12.4731L12.7084 10.6H12.7881C13.5789 9.3 14.8427 8.4186 16.5759 8.4186C17.8937 8.4186 18.9596 8.7891 19.7734 9.7199C20.5924 10.652 21 11.9026 21 13.6589V21Z" fill="white"/>
<path d="M5 7C6.10457 7 7 6.10457 7 5C7 3.89543 6.10457 3 5 3C3.89543 3 3 3.89543 3 5C3 6.10457 3.89543 7 5 7Z" fill="white"/>
</svg>
