<svg width="140" height="140" viewBox="0 0 140 140" fill="none" xmlns="http://www.w3.org/2000/svg">
<path fill-rule="evenodd" clip-rule="evenodd" d="M70 18.9584C72.4163 18.9584 74.375 20.9171 74.375 23.3334L74.375 116.667C74.375 119.083 72.4163 121.042 70 121.042C67.5838 121.042 65.625 119.083 65.625 116.667L65.625 23.3334C65.625 20.9171 67.5838 18.9584 70 18.9584ZM46.6667 36.4584C49.0829 36.4584 51.0417 38.4171 51.0417 40.8334V99.1667C51.0417 101.583 49.0829 103.542 46.6667 103.542C44.2504 103.542 42.2917 101.583 42.2917 99.1667V40.8334C42.2917 38.4171 44.2504 36.4584 46.6667 36.4584ZM93.3333 36.4584C95.7496 36.4584 97.7083 38.4171 97.7083 40.8334V99.1667C97.7083 101.583 95.7496 103.542 93.3333 103.542C90.9171 103.542 88.9583 101.583 88.9583 99.1667V40.8334C88.9583 38.4171 90.9171 36.4584 93.3333 36.4584ZM23.3333 59.7917C25.7496 59.7917 27.7083 61.7505 27.7083 64.1667L27.7083 75.8334C27.7083 78.2496 25.7496 80.2084 23.3333 80.2084C20.9171 80.2084 18.9583 78.2496 18.9583 75.8334L18.9583 64.1667C18.9583 61.7505 20.9171 59.7917 23.3333 59.7917ZM116.667 59.7917C119.083 59.7917 121.042 61.7505 121.042 64.1667V75.8334C121.042 78.2496 119.083 80.2084 116.667 80.2084C114.25 80.2084 112.292 78.2496 112.292 75.8334V64.1667C112.292 61.7505 114.25 59.7917 116.667 59.7917Z" fill="black"/>
</svg>
